<?xml version="1.0" encoding="UTF-8" standalone="no"?>
<!-- Created with Inkscape (http://www.inkscape.org/) -->

<svg
   width="107.89826mm"
   height="36.697639mm"
   viewBox="0 0 107.89826 36.697639"
   version="1.1"
   id="svg1"
   inkscape:version="1.4 (e7c3feb, 2024-10-09)"
   sodipodi:docname="scrapplication.svg"
   inkscape:export-filename="scrapplication.svg"
   inkscape:export-xdpi="96"
   inkscape:export-ydpi="96"
   xmlns:inkscape="http://www.inkscape.org/namespaces/inkscape"
   xmlns:sodipodi="http://sodipodi.sourceforge.net/DTD/sodipodi-0.dtd"
   xmlns="http://www.w3.org/2000/svg"
   xmlns:svg="http://www.w3.org/2000/svg">
  <sodipodi:namedview
     id="namedview1"
     pagecolor="#ffffff"
     bordercolor="#000000"
     borderopacity="0.25"
     inkscape:showpageshadow="2"
     inkscape:pageopacity="0.0"
     inkscape:pagecheckerboard="0"
     inkscape:deskcolor="#d1d1d1"
     inkscape:document-units="mm"
     showguides="false"
     inkscape:zoom="0.71268238"
     inkscape:cx="397.09134"
     inkscape:cy="559.85669"
     inkscape:window-width="1890"
     inkscape:window-height="991"
     inkscape:window-x="26"
     inkscape:window-y="23"
     inkscape:window-maximized="0"
     inkscape:current-layer="layer1">
    <inkscape:page
       x="0"
       y="0"
       width="107.89826"
       height="36.697639"
       id="page2"
       margin="0"
       bleed="0" />
  </sodipodi:namedview>
  <defs
     id="defs1">
    <rect
       x="95.414169"
       y="199.24724"
       width="413.92914"
       height="54.722836"
       id="rect5" />
  </defs>
  <g
     inkscape:label="Layer 1"
     inkscape:groupmode="layer"
     id="layer1"
     transform="translate(-25.000129,-24.999873)">
    <path
       d="m 53.418269,25.000001 h -0.91827 v 24.99974 H 77.499996 V 48.369397 A 25.126705,25.126705 0 0 0 53.418269,25.000001 Z"
       style="fill:#eaba6b;fill-opacity:1;stroke-width:0.269283"
       id="path4" />
    <path
       d="m 25.00013,49.0816 v 0.91827 h 24.99974 v -25 H 48.369526 A 25.126705,25.126705 0 0 0 25.00013,49.0816 Z"
       style="stroke-width:0.269283"
       id="path4-8" />
    <path
       d="m 132.49987,25.91814 v -0.91827 h -24.99974 v 25 h 1.63034 a 25.126705,25.126705 0 0 0 23.3694,-24.08173 z"
       style="fill:#49909e;fill-opacity:1;stroke-width:0.269283"
       id="path4-4" />
    <path
       d="m 80.00013,49.0816 v 0.91827 h 24.99974 v -25 h -1.63034 A 25.126705,25.126705 0 0 0 80.00013,49.0816 Z"
       style="fill:#ed6a5a;fill-opacity:1;stroke-width:0.269283"
       id="path4-8-0" />
    <path
       style="fill:#403d39;fill-opacity:1;stroke-width:1.40315"
       d="m 95.434913,182.76024 c 0.03494,-8.8642 4.019468,-22.90983 10.050807,-35.42953 7.46725,-15.50033 24.69352,-33.21324 40.02022,-41.15079 10.94863,-5.67019 28.52174,-10.765747 37.12796,-10.765747 h 5.38815 v 46.303937 46.30394 H 141.71811 95.414173 Z"
       id="path5"
       transform="scale(0.26458333)" />
    <text
       xml:space="preserve"
       transform="matrix(0.26458333,0,0,0.26458333,-0.52916663,-2.1166667)"
       id="text5"
       style="font-size:45.3333px;text-align:center;writing-mode:lr-tb;direction:ltr;white-space:pre;shape-inside:url(#rect5);display:inline;fill:#403d39;fill-opacity:1"
       x="160.07982"
       y="0"><tspan
         x="95.931358"
         y="240.73412"
         id="tspan3"><tspan
           style="font-weight:bold;font-family:Comfortaa;-inkscape-font-specification:'Comfortaa Bold'"
           id="tspan2">SCRAPPLICATION</tspan></tspan></text>
  </g>
</svg>
